# xmcd
#
# Track frame offsets:
#	150
#	40966
#	66824
#	102506
#	165159
#	195350
#	265936
#	298309
#
# Disc length: 4372 seconds
#
# Revision: 1
# Processed by: cddbd v1.5.2PL0 Copyright (c) Steve Scherf et al.
# Submitted via: audiograbber 1.83.01
#
DISCID=6f111208
DTITLE=Mark Knopfler - Live in Dresden 2013
DYEAR=2013
DGENRE=Folk
TTITLE0=Song for Sonny Liston
TTITLE1=Dream of the drowned submariner
TTITLE2=Postcards from Paraguay
TTITLE3=Marbletown
TTITLE4=Speedway at Nazareth
TTITLE5=Telegraph Road
TTITLE6=Our Shangri-La
TTITLE7=Going Home
EXTD=
EXTT0=
EXTT1=
EXTT2=
EXTT3=
EXTT4=
EXTT5=
EXTT6=
EXTT7=
PLAYORDER=
